<?xml version="1.0" encoding="UTF-8" standalone="no"?>
<!-- Created with Inkscape (http://www.inkscape.org/) -->
<svg
   xmlns:svg="http://www.w3.org/2000/svg"
   xmlns="http://www.w3.org/2000/svg"
   xmlns:xlink="http://www.w3.org/1999/xlink"
   xmlns:inkscape="http://www.inkscape.org/namespaces/inkscape"
   version="1.0"
   width="100%"
   height="100%"
   viewBox="0 0 36.000004 45.005527"
   id="svg2521">
  <defs
     id="defs2523">
    <linearGradient
       id="linearGradient5048">
      <stop
         id="stop5050"
         style="stop-color:#000000;stop-opacity:0"
         offset="0" />
      <stop
         id="stop5056"
         style="stop-color:#000000;stop-opacity:1"
         offset="0.5" />
      <stop
         id="stop5052"
         style="stop-color:#000000;stop-opacity:0"
         offset="1" />
    </linearGradient>
    <linearGradient
       x1="302.85715"
       y1="366.64789"
       x2="302.85715"
       y2="609.50507"
       id="linearGradient2647"
       xlink:href="#linearGradient5048"
       gradientUnits="userSpaceOnUse"
       gradientTransform="matrix(0.06732488,0,0,0.01470022,-0.3411391,37.040146)" />
    <radialGradient
       cx="605.71429"
       cy="486.64789"
       r="117.14286"
       fx="605.71429"
       fy="486.64789"
       id="radialGradient2644"
       xlink:href="#linearGradient5060"
       gradientUnits="userSpaceOnUse"
       gradientTransform="matrix(-0.02303994,0,0,0.01470022,21.62311,37.040176)" />
    <linearGradient
       id="linearGradient5060">
      <stop
         id="stop5062"
         style="stop-color:#000000;stop-opacity:1"
         offset="0" />
      <stop
         id="stop5064"
         style="stop-color:#000000;stop-opacity:0"
         offset="1" />
    </linearGradient>
    <radialGradient
       cx="605.71429"
       cy="486.64789"
       r="117.14286"
       fx="605.71429"
       fy="486.64789"
       id="radialGradient2641"
       xlink:href="#linearGradient5060"
       gradientUnits="userSpaceOnUse"
       gradientTransform="matrix(0.02303995,0,0,0.01470022,26.360882,37.040176)" />
    <linearGradient
       x1="-51.786404"
       y1="50.786446"
       x2="-51.786404"
       y2="2.9062471"
       id="linearGradient2638"
       xlink:href="#linearGradient3104"
       gradientUnits="userSpaceOnUse"
       gradientTransform="matrix(0.8074968,0,0,0.8948322,59.410232,-2.9805533)" />
    <linearGradient
       id="linearGradient3600">
      <stop
         id="stop3602"
         style="stop-color:#f4f4f4;stop-opacity:1"
         offset="0" />
      <stop
         id="stop3604"
         style="stop-color:#dbdbdb;stop-opacity:1"
         offset="1" />
    </linearGradient>
    <linearGradient
       x1="25.132275"
       y1="0.98520643"
       x2="25.132275"
       y2="47.013336"
       id="linearGradient2636"
       xlink:href="#linearGradient3600"
       gradientUnits="userSpaceOnUse"
       gradientTransform="matrix(1,0,0,0.9561695,-1.0064697e-7,-1.914922)" />
    <radialGradient
       cx="102"
       cy="112.3047"
       r="139.55859"
       id="XMLID_8_"
       gradientUnits="userSpaceOnUse">
      <stop
         id="stop41"
         style="stop-color:#b7b8b9;stop-opacity:1"
         offset="0" />
      <stop
         id="stop47"
         style="stop-color:#ececec;stop-opacity:1"
         offset="0.18851049" />
      <stop
         id="stop49"
         style="stop-color:#fafafa;stop-opacity:0"
         offset="0.25718147" />
      <stop
         id="stop51"
         style="stop-color:#ffffff;stop-opacity:0"
         offset="0.30111277" />
      <stop
         id="stop53"
         style="stop-color:#fafafa;stop-opacity:0"
         offset="0.53130001" />
      <stop
         id="stop55"
         style="stop-color:#ebecec;stop-opacity:0"
         offset="0.84490001" />
      <stop
         id="stop57"
         style="stop-color:#e1e2e3;stop-opacity:0"
         offset="1" />
    </radialGradient>
    <radialGradient
       cx="102"
       cy="112.3047"
       r="139.55859"
       id="radialGradient2633"
       xlink:href="#XMLID_8_"
       gradientUnits="userSpaceOnUse"
       gradientTransform="matrix(0.3617022,0,0,-0.3907784,0.8510637,47.517004)" />
    <linearGradient
       id="linearGradient3211">
      <stop
         id="stop3213"
         style="stop-color:#ffffff;stop-opacity:1"
         offset="0" />
      <stop
         id="stop3215"
         style="stop-color:#ffffff;stop-opacity:0"
         offset="1" />
    </linearGradient>
    <linearGradient
       x1="24"
       y1="1.9999999"
       x2="24"
       y2="46.01725"
       id="linearGradient2630"
       xlink:href="#linearGradient3211"
       gradientUnits="userSpaceOnUse"
       gradientTransform="matrix(1,0,0,0.9777778,0,-0.9666693)" />
    <linearGradient
       id="linearGradient3104">
      <stop
         id="stop3106"
         style="stop-color:#aaaaaa;stop-opacity:1"
         offset="0" />
      <stop
         id="stop3108"
         style="stop-color:#c8c8c8;stop-opacity:1"
         offset="1" />
    </linearGradient>
    <linearGradient
       x1="17.424658"
       y1="44.872871"
       x2="17.424658"
       y2="-0.02739726"
       id="linearGradient2627"
       xlink:href="#linearGradient3104"
       gradientUnits="userSpaceOnUse" />
    <linearGradient
       id="linearGradient4114">
      <stop
         id="stop4116"
         style="stop-color:#000000;stop-opacity:1"
         offset="0" />
      <stop
         id="stop4118"
         style="stop-color:#000000;stop-opacity:0"
         offset="1" />
    </linearGradient>
    <radialGradient
       cx="15.115514"
       cy="63.965389"
       r="12.289036"
       fx="15.115514"
       fy="63.965389"
       id="radialGradient2624"
       xlink:href="#linearGradient4114"
       gradientUnits="userSpaceOnUse"
       gradientTransform="matrix(1.1582748,0,0,0.5328072,7.046889,-3.6289227)" />
    <linearGradient
       id="linearGradient5134-621">
      <stop
         id="stop5857"
         style="stop-color:#d63233;stop-opacity:1"
         offset="0" />
      <stop
         id="stop5859"
         style="stop-color:#fd9283;stop-opacity:1"
         offset="1" />
    </linearGradient>
    <linearGradient
       x1="27.041409"
       y1="26.330421"
       x2="35"
       y2="33"
       id="linearGradient2621"
       xlink:href="#linearGradient5134-621"
       gradientUnits="userSpaceOnUse"
       gradientTransform="matrix(0.9996346,0.02703048,-0.02703048,0.9996346,0.441779,0.525898)" />
    <linearGradient
       id="linearGradient3626-304-761-759-275">
      <stop
         id="stop5377"
         style="stop-color:#9c3f2f;stop-opacity:1"
         offset="0" />
      <stop
         id="stop5379"
         style="stop-color:#9a3422;stop-opacity:0"
         offset="1" />
    </linearGradient>
    <linearGradient
       x1="96.71505"
       y1="34.202248"
       x2="99.66996"
       y2="34.205513"
       id="linearGradient2617"
       xlink:href="#linearGradient3626-304-761-759-275"
       gradientUnits="userSpaceOnUse"
       gradientTransform="matrix(0.8953879,0.8289356,-0.8599741,0.932679,-33.466662,-84.903843)" />
    <linearGradient
       id="linearGradient5150-349">
      <stop
         id="stop5371"
         style="stop-color:#d44228;stop-opacity:1"
         offset="0" />
      <stop
         id="stop5373"
         style="stop-color:#bc3c31;stop-opacity:1"
         offset="1" />
    </linearGradient>
    <radialGradient
       cx="93.541039"
       cy="31.684702"
       r="6.8495793"
       fx="93.541039"
       fy="31.684702"
       id="radialGradient2615"
       xlink:href="#linearGradient5150-349"
       gradientUnits="userSpaceOnUse"
       gradientTransform="matrix(0.7994377,0.7289882,-1.3798659,1.5182306,-8.0187645,-94.107686)" />
    <linearGradient
       id="linearGradient13503-332-487-296">
      <stop
         id="stop4805"
         style="stop-color:#f33838;stop-opacity:1"
         offset="0" />
      <stop
         id="stop4807"
         style="stop-color:#ffffff;stop-opacity:1"
         offset="1" />
    </linearGradient>
    <linearGradient
       x1="83.625"
       y1="38.322552"
       x2="83.625"
       y2="35.208294"
       id="linearGradient2612"
       xlink:href="#linearGradient13503-332-487-296"
       gradientUnits="userSpaceOnUse"
       gradientTransform="matrix(1.0869608,-0.01247873,0.01247873,1.0869608,-76.924934,-10.137304)" />
    <linearGradient
       id="linearGradient13503-372-775-212">
      <stop
         id="stop4811"
         style="stop-color:#f33838;stop-opacity:1"
         offset="0" />
      <stop
         id="stop4813"
         style="stop-color:#ffffff;stop-opacity:1"
         offset="1" />
    </linearGradient>
    <linearGradient
       x1="92.25"
       y1="33.754673"
       x2="92.03125"
       y2="30.257521"
       id="linearGradient2609"
       xlink:href="#linearGradient13503-372-775-212"
       gradientUnits="userSpaceOnUse"
       gradientTransform="matrix(1.0869608,-0.01247873,0.01247873,1.0869608,-76.924934,-10.137304)" />
    <linearGradient
       id="linearGradient13503-167-938-817">
      <stop
         id="stop4817"
         style="stop-color:#f33838;stop-opacity:1"
         offset="0" />
      <stop
         id="stop4819"
         style="stop-color:#ffffff;stop-opacity:1"
         offset="1" />
    </linearGradient>
    <linearGradient
       x1="97.28125"
       y1="27.1875"
       x2="94.15625"
       y2="24.4375"
       id="linearGradient2606"
       xlink:href="#linearGradient13503-167-938-817"
       gradientUnits="userSpaceOnUse"
       gradientTransform="matrix(1.0869608,-0.01247873,0.01247873,1.0869608,-76.924934,-10.137304)" />
    <linearGradient
       id="linearGradient13503-262-391-358">
      <stop
         id="stop4781"
         style="stop-color:#f33838;stop-opacity:1"
         offset="0" />
      <stop
         id="stop4783"
         style="stop-color:#ffffff;stop-opacity:1"
         offset="1" />
    </linearGradient>
    <linearGradient
       x1="95.631493"
       y1="-19.533808"
       x2="90.217705"
       y2="-18.141273"
       id="linearGradient2603"
       xlink:href="#linearGradient13503-262-391-358"
       gradientUnits="userSpaceOnUse"
       gradientTransform="matrix(1.0869608,-0.01247873,0.01247873,1.0869608,-72.077951,33.291207)" />
    <linearGradient
       id="linearGradient13503-393-636-660">
      <stop
         id="stop4829"
         style="stop-color:#f33838;stop-opacity:1"
         offset="0" />
      <stop
         id="stop4831"
         style="stop-color:#ffffff;stop-opacity:1"
         offset="1" />
    </linearGradient>
    <linearGradient
       x1="91.25193"
       y1="-15.59241"
       x2="92.604187"
       y2="-20.792925"
       id="linearGradient2600"
       xlink:href="#linearGradient13503-393-636-660"
       gradientUnits="userSpaceOnUse"
       gradientTransform="matrix(1.0869608,-0.01247873,0.01247873,1.0869608,-87.390099,48.890293)" />
    <linearGradient
       id="linearGradient13645-430-425-17">
      <stop
         id="stop4823"
         style="stop-color:#ab3227;stop-opacity:1"
         offset="0" />
      <stop
         id="stop4825"
         style="stop-color:#d54329;stop-opacity:1"
         offset="1" />
    </linearGradient>
    <linearGradient
       x1="93.695778"
       y1="41.634907"
       x2="88.839615"
       y2="26.961405"
       id="linearGradient2597"
       xlink:href="#linearGradient13645-430-425-17"
       gradientUnits="userSpaceOnUse"
       gradientTransform="matrix(0.5515104,0.4966222,-0.5368046,0.5664533,-14.550305,-44.694164)" />
    <linearGradient
       id="linearGradient5142">
      <stop
         id="stop5144"
         style="stop-color:#fbb6b6;stop-opacity:1"
         offset="0" />
      <stop
         id="stop5146"
         style="stop-color:#fbb6b6;stop-opacity:0"
         offset="1" />
    </linearGradient>
    <linearGradient
       x1="91.248039"
       y1="20.596615"
       x2="105.09795"
       y2="35.66256"
       id="linearGradient2594"
       xlink:href="#linearGradient5142"
       gradientUnits="userSpaceOnUse"
       gradientTransform="matrix(0.8289991,0.7523632,-0.8039045,0.8548338,-28.918001,-75.232647)" />
    <filter
       id="filter3212"
       x="-0.14846256"
       width="1.2969251"
       y="-0.16434373"
       height="1.3286875">
      <feGaussianBlur
         inkscape:collect="always"
         stdDeviation="0.77391625"
         id="feGaussianBlur3214" />
    </filter>
    <linearGradient
       id="linearGradient8589">
      <stop
         id="stop8591"
         style="stop-color:#fefefe;stop-opacity:1"
         offset="0" />
      <stop
         id="stop8593"
         style="stop-color:#cbcbcb;stop-opacity:1"
         offset="1" />
    </linearGradient>
    <linearGradient
       x1="32.892288"
       y1="8.0590115"
       x2="36.358372"
       y2="5.4565363"
       id="linearGradient2590"
       xlink:href="#linearGradient8589"
       gradientUnits="userSpaceOnUse"
       gradientTransform="matrix(0.9976985,0,0,1.0406866,0.1638029,-1.1057939)" />
  </defs>
  <g
     id="layer1"
     transform="translate(-6,0.00276215)">
    <path
       d="m 6.4999609,0.49719878 c 8.0202951,0 16.0405901,0 24.0608861,0 1.406933,0.4746531 8.965454,5.88220462 10.939195,9.62640622 0,11.459733 0,22.919465 0,34.379198 -11.666694,0 -23.333387,0 -35.0000811,0 0,-14.668535 0,-29.33707 0,-44.00560422 z"
       id="path4160"
       style="display:inline;fill:url(#linearGradient2636);fill-opacity:1;stroke:url(#linearGradient2638);stroke-width:0.99992186;stroke-linecap:butt;stroke-linejoin:round;stroke-miterlimit:4;stroke-dasharray:none;stroke-dashoffset:0;stroke-opacity:1" />
    <path
       d="m 7.3617017,44 c -0.199297,0 -0.361702,-0.175459 -0.361702,-0.39078 l 0,-42.2040499 c 0,-0.2157088 0.162405,-0.3907775 0.361702,-0.3907775 C 14.844793,1.1224073 23.137385,0.85281757 30.611384,1.0412872 L 40.894021,9.9073127 41,43.60922 C 41,43.824541 40.837957,44 40.638297,44 L 7.3617017,44 Z"
       id="path4191"
       style="fill:url(#radialGradient2633);fill-opacity:1" />
    <path
       d="m 40.500039,10.258811 c 0,10.949037 0,22.31441 0,33.263447 -11.000026,0 -22.000052,0 -33.0000781,0 0,-14.014841 0,-28.029681 0,-42.0445213 7.5619931,0 15.3043341,0 22.8663281,0"
       id="path2435"
       style="display:inline;opacity:0.6;fill:none;fill-opacity:1;stroke:url(#linearGradient2630);stroke-width:0.9999218;stroke-linecap:butt;stroke-linejoin:round;stroke-miterlimit:4;stroke-dasharray:none;stroke-dashoffset:0;stroke-opacity:1" />
    <path
       d="m 11,6 0,1 2.375,0 0,-1 L 11,6 Z m 2.6875,0 0,1 2.25,0 0,-1 -2.25,0 z m 2.5625,0 0,1 1.96875,0 0,-1 L 16.25,6 Z m 2.28125,0 0,1 0.875,0 0,-1 -0.875,0 z m 1.1875,0 0,1 1.9375,0 0,-1 -1.9375,0 z M 22,6 l 0,1 5,0 0,-1 -5,0 z m -11,2 0,1 3.78125,0 0,-1 L 11,8 Z m 4.15625,0 0,1 1.8125,0 0,-1 -1.8125,0 z m 2.15625,0 0,1 0.84375,0 0,-1 -0.84375,0 z m 1.21875,0 0,1 1.625,0 0,-1 -1.625,0 z m 2,0 0,1 1.625,0 0,-1 -1.625,0 z M 22.5,8 l 0,1 2.65625,0 0,-1 L 22.5,8 Z m 3.03125,0 0,1 L 29,9 29,8 25.53125,8 Z M 11,10 l 0,1 4.1875,0 0,-1 L 11,10 Z m 4.5,0 0,1 4.5,0 0,-1 -4.5,0 z m -4.5,2 0,1 2.3125,0 0,-1 L 11,12 Z m 2.625,0 0,1 2.15625,0 0,-1 -2.15625,0 z m 2.46875,0 0,1 1.90625,0 0,-1 -1.90625,0 z m 3.84375,25 0,1 2.4375,0 0,-1 -2.4375,0 z m 2.75,0 0,1 2.25,0 0,-1 -2.25,0 z m 2.59375,0 0,1 1.9375,0 0,-1 -1.9375,0 z m 2.25,0 0,1 3.09375,0 0,-1 -3.09375,0 z m 3.4375,0 0,1 L 36,38 36,37 30.96875,37 Z M 11,15 l 0,1 3.0625,0 0,-1 L 11,15 Z m 0,2 0,1 3.09375,0 0,-1 L 11,17 Z m 4.625,16 0,1 4.59375,0 0,-1 -4.59375,0 z m 4.9375,0 0,1 1.8125,0 0,-1 -1.8125,0 z m 2.15625,0 0,1 4.3125,0 0,-1 -4.3125,0 z m 4.65625,0 0,1 2.96875,0 0,-1 -2.96875,0 z m 3.28125,0 0,1 1.15625,0 0,-1 -1.15625,0 z m 1.5,0 0,1 0.6875,0 0,-1 -0.6875,0 z m 1,0 0,1 1.84375,0 0,-1 -1.84375,0 z m -16.03125,2 0,1 0.8125,0 0,-1 -0.8125,0 z m 1.03125,0 0,1 1.625,0 0,-1 -1.625,0 z m 1.875,0 0,1 1.625,0 0,-1 -1.625,0 z m 2.125,0 0,1 2.59375,0 0,-1 -2.59375,0 z m 2.90625,0 0,1 3.375,0 0,-1 -3.375,0 z m 3.84375,0 0,1 2.28125,0 0,-1 -2.28125,0 z m 2.5625,0 0,1 L 32,36 32,35 31.46875,35 Z M 11,37 l 3.036746,0 0,1 L 11,38 11,37 Z m 0,-15 0,1 1,0 0,-1 -1,0 z m 0,11 0,1 4.28125,0 0,-1 L 11,33 Z m 0,2 0,1 3.6875,0 0,-1 L 11,35 Z m 3.96875,0 0,1 1.78125,0 0,-1 -1.78125,0 z m -0.625,2 0,1 3.34375,0 0,-1 -3.34375,0 z M 11,20 l 0,1 2.34375,0 0,-1 L 11,20 Z m 0,4 0,1 2.75,0 0,-1 -2.75,0 z m 0,2 0,1 2.9375,0 0,-1 L 11,26 Z m 0,2 0,1 2.53125,0 0,-1 L 11,28 Z m 0,2.15625 0,0.96875 2.21875,0 0,-0.96875 -2.21875,0 z"
       id="path4149"
       style="display:inline;fill:url(#linearGradient2627);fill-opacity:1;stroke:none;stroke-width:0.45541501;stroke-linecap:square;stroke-linejoin:miter;stroke-miterlimit:4;stroke-dashoffset:0;stroke-opacity:1" />
    <path
       d="m 38.788886,30.452311 c 0.0016,3.616697 -6.371708,6.548992 -14.234079,6.548992 -7.862372,0 -14.235644,-2.932295 -14.23408,-6.548992 -0.0016,-3.616698 6.371708,-6.548992 14.23408,-6.548992 7.862371,0 14.235644,2.932294 14.234079,6.548992 z"
       id="path4112"
       style="display:inline;opacity:0.42918456;fill:url(#radialGradient2624);fill-opacity:1;stroke:none;stroke-opacity:1" />
    <path
       d="M 34.652635,16.071306 34.536984,34.459907 16.193694,34.5 34.652635,16.071306 Z"
       id="path16493"
       style="fill:url(#linearGradient2621);fill-opacity:1;fill-rule:evenodd;stroke:#9c3f2f;stroke-width:0.99999946px;stroke-linecap:butt;stroke-linejoin:round;stroke-opacity:1" />
    <path
       d="m 34.536984,34.459907 -2.531308,-11.332153 -4.672339,6.258534 7.203647,5.073619 z m 0,0 -11.526509,-2.552211 -3.46801,2.146753 14.994519,0.405458 z"
       id="path16495"
       style="fill:#af3a28;fill-opacity:1;fill-rule:evenodd;stroke:none;stroke-width:1px;stroke-linecap:butt;stroke-linejoin:miter;stroke-opacity:1" />
    <path
       d="M 28.827866,27.544855 C 23.304038,33.534784 16.237349,35.995181 13.03943,33.041893 9.84151,30.088606 11.721915,22.838662 17.240643,16.844023 22.75937,10.849383 29.829057,8.3774179 33.035781,11.32114 36.242506,14.264864 34.37338,21.510865 28.859769,27.5102"
       id="path16499"
       style="fill:url(#radialGradient2615);fill-opacity:1;fill-rule:nonzero;stroke:url(#linearGradient2617);stroke-width:0.96153194;stroke-linecap:round;stroke-linejoin:round;stroke-miterlimit:4;stroke-dasharray:none;stroke-dashoffset:0;stroke-opacity:1" />
    <path
       d="m 16.051748,33.842156 3.087659,-9.207885 -5.975164,0.340371 2.887505,8.867514 z"
       id="path16503"
       style="opacity:0.80257509;fill:url(#linearGradient2612);fill-opacity:1;fill-rule:evenodd;stroke:none;stroke-width:1px;stroke-linecap:butt;stroke-linejoin:bevel;stroke-opacity:1" />
    <path
       d="m 27.938123,27.590737 -2.899204,-9.886539 -5.899512,6.930073 8.798716,2.956466 z"
       id="path16505"
       style="opacity:0.80257509;fill:url(#linearGradient2609);fill-opacity:1;fill-rule:evenodd;stroke:none;stroke-width:1px;stroke-linecap:butt;stroke-linejoin:bevel;stroke-opacity:1" />
    <path
       d="m 25.186571,12.810535 8.140422,4.798513 -8.35601,0.09593 0.215588,-4.894444 z"
       id="path16507"
       style="opacity:0.80257509;fill:url(#linearGradient2606);fill-opacity:1;fill-rule:evenodd;stroke:none;stroke-width:1px;stroke-linecap:butt;stroke-linejoin:bevel;stroke-opacity:1" />
    <path
       d="M 30.257472,10.930033 26.640834,13.95026 23.64334,12.279489 30.257472,10.930033 Z"
       id="path16509"
       style="opacity:0.80257509;fill:url(#linearGradient2603);fill-opacity:1;fill-rule:evenodd;stroke:none;stroke-width:1px;stroke-linecap:butt;stroke-linejoin:miter;stroke-opacity:1" />
    <path
       d="m 13.848096,26.754008 -2.520538,2.899288 1.428999,-5.945518 1.091539,3.04623 z"
       id="path16511"
       style="opacity:0.80257509;fill:url(#linearGradient2600);fill-opacity:1;fill-rule:evenodd;stroke:none;stroke-width:1px;stroke-linecap:butt;stroke-linejoin:miter;stroke-opacity:1" />
    <path
       d="m 22.886519,22.280474 c -3.44769,3.638229 -7.520965,5.438171 -9.100537,4.02144 -1.579573,-1.416731 -0.068,-5.514281 3.377173,-9.154771 3.445169,-3.64049 7.520857,-5.446969 9.105926,-4.036046 1.585069,1.410923 0.08,5.50559 -3.362646,9.148332"
       id="path16513"
       style="fill:url(#linearGradient2597);fill-opacity:1;fill-rule:nonzero;stroke:#e3b9be;stroke-width:1.00000012;stroke-linecap:round;stroke-linejoin:round;stroke-miterlimit:4;stroke-dasharray:none;stroke-dashoffset:0;stroke-opacity:1" />
    <path
       d="m 28.513916,27.091987 c -5.163674,5.489989 -11.746464,7.766384 -14.707305,5.085939 -2.960842,-2.680444 -1.17985,-9.303898 3.979103,-14.798161 5.158952,-5.494264 11.744582,-7.7812277 14.713654,-5.10955 2.969072,2.671679 1.198587,9.291485 -3.955628,14.79001"
       id="path3614"
       style="opacity:0.4;fill:none;fill-opacity:1;fill-rule:nonzero;stroke:url(#linearGradient2594);stroke-width:0.96153194;stroke-linecap:round;stroke-linejoin:round;stroke-miterlimit:4;stroke-dasharray:none;stroke-dashoffset:0;stroke-opacity:1" />
    <path
       d="m 28.617256,0.92125832 c 4.282522,0 2.15325,8.48317128 2.15325,8.48317128 0,0 10.357642,-1.8023467 10.357642,2.8187444 0,-2.6097233 -11.302304,-10.7285956 -12.510892,-11.30191568 z"
       id="path12038"
       style="display:inline;opacity:0.4;fill:#000000;fill-opacity:1;fill-rule:evenodd;stroke:none;stroke-width:1px;stroke-linecap:butt;stroke-linejoin:miter;stroke-opacity:1;filter:url(#filter3212)" />
    <path
       d="m 28.617256,0.92125832 c 3.186493,0 2.33576,7.66187848 2.33576,7.66187848 0,0 10.175132,-0.9810539 10.175132,3.6400372 0,-1.125939 0.08591,-1.932245 -0.133777,-2.2835928 C 39.416058,7.4154025 32.598855,1.7511811 30.137071,1.008793 29.952849,0.95323837 29.544367,0.92125832 28.617256,0.92125832 Z"
       id="path4474"
       style="display:inline;fill:url(#linearGradient2590);fill-opacity:1;fill-rule:evenodd;stroke:none;stroke-width:1px;stroke-linecap:butt;stroke-linejoin:miter;stroke-opacity:1" />
  </g>
</svg>
