<?xml version="1.0" encoding="UTF-8" standalone="no"?>
<!-- Created with Inkscape (http://www.inkscape.org/) -->

<svg
   xmlns:svg="http://www.w3.org/2000/svg"
   xmlns="http://www.w3.org/2000/svg"
   xmlns:xlink="http://www.w3.org/1999/xlink"
   version="1.0"
   width="100%"
   height="100%"
   viewBox="0 0 36.000004 45.005527"
   id="svg3638">
  <defs
     id="defs3640">
    <linearGradient
       id="linearGradient5048">
      <stop
         id="stop5050"
         style="stop-color:black;stop-opacity:0"
         offset="0" />
      <stop
         id="stop5056"
         style="stop-color:black;stop-opacity:1"
         offset="0.5" />
      <stop
         id="stop5052"
         style="stop-color:black;stop-opacity:0"
         offset="1" />
    </linearGradient>
    <linearGradient
       id="linearGradient5060">
      <stop
         id="stop5062"
         style="stop-color:black;stop-opacity:1"
         offset="0" />
      <stop
         id="stop5064"
         style="stop-color:black;stop-opacity:0"
         offset="1" />
    </linearGradient>
    <linearGradient
       id="linearGradient3104">
      <stop
         id="stop3106"
         style="stop-color:#aaa;stop-opacity:1"
         offset="0" />
      <stop
         id="stop3108"
         style="stop-color:#c8c8c8;stop-opacity:1"
         offset="1" />
    </linearGradient>
    <linearGradient
       id="linearGradient3600">
      <stop
         id="stop3602"
         style="stop-color:#f4f4f4;stop-opacity:1"
         offset="0" />
      <stop
         id="stop3604"
         style="stop-color:#dbdbdb;stop-opacity:1"
         offset="1" />
    </linearGradient>
    <radialGradient
       cx="102"
       cy="112.3047"
       r="139.55859"
       id="XMLID_8_"
       gradientUnits="userSpaceOnUse">
      <stop
         id="stop41"
         style="stop-color:#b7b8b9;stop-opacity:1"
         offset="0" />
      <stop
         id="stop47"
         style="stop-color:#ececec;stop-opacity:1"
         offset="0.18851049" />
      <stop
         id="stop49"
         style="stop-color:#fafafa;stop-opacity:0"
         offset="0.25718147" />
      <stop
         id="stop51"
         style="stop-color:white;stop-opacity:0"
         offset="0.30111277" />
      <stop
         id="stop53"
         style="stop-color:#fafafa;stop-opacity:0"
         offset="0.53130001" />
      <stop
         id="stop55"
         style="stop-color:#ebecec;stop-opacity:0"
         offset="0.84490001" />
      <stop
         id="stop57"
         style="stop-color:#e1e2e3;stop-opacity:0"
         offset="1" />
    </radialGradient>
    <linearGradient
       id="linearGradient3211">
      <stop
         id="stop3213"
         style="stop-color:white;stop-opacity:1"
         offset="0" />
      <stop
         id="stop3215"
         style="stop-color:white;stop-opacity:0"
         offset="1" />
    </linearGradient>
    <linearGradient
       id="linearGradient4338">
      <stop
         id="stop4340"
         style="stop-color:#8e8e8e;stop-opacity:1"
         offset="0" />
      <stop
         id="stop4342"
         style="stop-color:#b5b5b5;stop-opacity:1"
         offset="1" />
    </linearGradient>
    <linearGradient
       id="linearGradient8589">
      <stop
         id="stop8591"
         style="stop-color:#fefefe;stop-opacity:1"
         offset="0" />
      <stop
         id="stop8593"
         style="stop-color:#cbcbcb;stop-opacity:1"
         offset="1" />
    </linearGradient>
    <linearGradient
       x1="32.892288"
       y1="8.0590115"
       x2="36.358372"
       y2="5.4565363"
       id="linearGradient2432"
       xlink:href="#linearGradient8589"
       gradientUnits="userSpaceOnUse"
       gradientTransform="matrix(0.9976985,0,0,1.0406866,-5.8361971,-1.1030318)" />
    <linearGradient
       x1="22.104254"
       y1="39.698696"
       x2="22.104254"
       y2="9.2626371"
       id="linearGradient2436"
       xlink:href="#linearGradient4338"
       gradientUnits="userSpaceOnUse"
       gradientTransform="matrix(0.9946067,0,0,1.440776,-6.3759013,-12.860327)" />
    <linearGradient
       x1="24"
       y1="1.9999999"
       x2="24"
       y2="46.01725"
       id="linearGradient2439"
       xlink:href="#linearGradient3211"
       gradientUnits="userSpaceOnUse"
       gradientTransform="matrix(1,0,0,0.9777778,-6,-0.96390715)" />
    <radialGradient
       cx="102"
       cy="112.3047"
       r="139.55859"
       id="radialGradient2442"
       xlink:href="#XMLID_8_"
       gradientUnits="userSpaceOnUse"
       gradientTransform="matrix(0.3617022,0,0,-0.3907784,-5.1489363,47.519766)" />
    <linearGradient
       x1="25.132275"
       y1="0.98520643"
       x2="25.132275"
       y2="47.013336"
       id="linearGradient2445"
       xlink:href="#linearGradient3600"
       gradientUnits="userSpaceOnUse"
       gradientTransform="matrix(1,0,0,0.9561695,-6.0000001,-1.9121599)" />
    <linearGradient
       x1="-51.786404"
       y1="50.786446"
       x2="-51.786404"
       y2="2.9062471"
       id="linearGradient2447"
       xlink:href="#linearGradient3104"
       gradientUnits="userSpaceOnUse"
       gradientTransform="matrix(0.8074968,0,0,0.8948322,53.410232,-2.9777912)" />
    <radialGradient
       cx="605.71429"
       cy="486.64789"
       r="117.14286"
       fx="605.71429"
       fy="486.64789"
       id="radialGradient2450"
       xlink:href="#linearGradient5060"
       gradientUnits="userSpaceOnUse"
       gradientTransform="matrix(0.02303995,0,0,0.01470022,26.360882,37.040176)" />
    <radialGradient
       cx="605.71429"
       cy="486.64789"
       r="117.14286"
       fx="605.71429"
       fy="486.64789"
       id="radialGradient2453"
       xlink:href="#linearGradient5060"
       gradientUnits="userSpaceOnUse"
       gradientTransform="matrix(-0.02303994,0,0,0.01470022,21.62311,37.040176)" />
    <linearGradient
       x1="302.85715"
       y1="366.64789"
       x2="302.85715"
       y2="609.50507"
       id="linearGradient2456"
       xlink:href="#linearGradient5048"
       gradientUnits="userSpaceOnUse"
       gradientTransform="matrix(0.06732488,0,0,0.01470022,-0.3411391,37.040146)" />
    <filter
       x="-0.14846256"
       y="-0.16434373"
       width="1.2969251"
       height="1.3286875"
       style="color-interpolation-filters:sRGB"
       id="filter3248">
      <feGaussianBlur
         stdDeviation="0.77391625"
         id="feGaussianBlur3250" />
    </filter>
  </defs>
  <path
     d="m 0.49996093,0.49996093 c 8.02029507,0 16.04059007,0 24.06088607,0 1.406933,0.4746531 8.965454,5.88220457 10.939195,9.62640607 0,11.459733 0,22.919465 0,34.379198 -11.666694,0 -23.333387,0 -35.00008107,0 0,-14.668535 0,-29.33707 0,-44.00560407 z"
     id="path4160"
     style="display:inline;fill:url(#linearGradient2445);fill-opacity:1;stroke:url(#linearGradient2447);stroke-width:0.99992186;stroke-linecap:butt;stroke-linejoin:round;stroke-miterlimit:4;stroke-dasharray:none;stroke-dashoffset:0;stroke-opacity:1" />
  <path
     d="m 1.3617017,44.002762 c -0.199297,0 -0.36170197,-0.175459 -0.36170197,-0.39078 l 0,-42.2040498 c 0,-0.2157088 0.16240497,-0.3907775 0.36170197,-0.3907775 C 8.844793,1.1251694 17.137385,0.85557972 24.611384,1.0440493 L 34.894021,9.9100748 35,43.611982 c 0,0.215321 -0.162043,0.39078 -0.361703,0.39078 l -33.2765953,0 z"
     id="path4191"
     style="fill:url(#radialGradient2442);fill-opacity:1" />
  <path
     d="m 34.500039,10.261573 c 0,10.949037 0,22.31441 0,33.263447 -11.000026,0 -22.000052,0 -33.0000781,0 0,-14.014841 0,-28.029681 0,-42.0445212 7.5619931,0 15.3043341,0 22.8663281,0"
     id="path2435"
     style="display:inline;opacity:0.6;fill:none;stroke:url(#linearGradient2439);stroke-width:0.9999218;stroke-linecap:butt;stroke-linejoin:round;stroke-miterlimit:4;stroke-dasharray:none;stroke-dashoffset:0;stroke-opacity:1" />
  <path
     d="m 5,22.002762 2.345838,0 0,1 -2.345838,0 0,-1 z m 2.665379,0 2.213403,0 0,1 -2.213403,0 0,-1 z m 2.532944,0 1.948514,0 0,1 -1.948514,0 0,-1 z m 2.268056,0 0.855871,0 0,1 -0.855871,0 0,-1 z m 1.175422,0 1.915398,0 0,1 -1.915398,0 0,-1 z m 2.234949,0 4.961553,0 0,1 -4.961553,0 0,-1 z m 5.281094,0 3.769581,0 0,1 -3.769581,0 0,-1 z m 4.089133,0 1.153856,0 0,1 -1.153856,0 0,-1 0,0 z m 1.473408,0 2.279615,0 0,1 -2.279615,0 0,-1 0,0 z m -21.720385,6 3.691817,0 0,1 -3.691817,0 0,-1 z m 3.965761,0 1.776154,0 0,1 -1.776154,0 0,-1 0,0 z m 2.15092,0 0.835125,0 0,1 -0.835125,0 0,-1 z m 1.041852,0 1.608114,0 0,1 -1.608114,0 0,-1 z m 1.882048,0 1.608115,0 0,1 -1.608115,0 0,-1 z m 2.117317,0 2.582748,0 0,1 -2.582748,0 0,-1 z m 2.890296,0 3.389342,0 0,1 -3.389342,0 0,-1 z m 3.864929,0 2.280283,0 0,1 -2.280283,0 0,-1 z m 2.554218,0 0.532659,0 0,1 -0.532659,0 0,-1 0,0 z m -20.467341,-4 3.928045,0 0,1 -3.928045,0 0,-1 z m 4.235965,0 4.208949,0 0,1 -4.208949,0 0,-1 0,0 z m 4.516869,0 1.680758,0 0,1 -1.680758,0 0,-1 z m 1.988678,0 3.959254,0 0,1 -3.959254,0 0,-1 0,0 z m 7.285852,0 1.056505,0 0,1 -1.056505,0 0,-1 z m -3.018678,0 2.710758,0 0,1 -2.710758,0 0,-1 z m 4.383104,0 0.619532,0 0,1 -0.619532,0 0,-1 z m 0.927452,0 1.680758,0 0,1 -1.680758,0 0,-1 z m -20.319242,2 4.28514,0 0,1 -4.28514,0 0,-1 z m 4.621053,0 4.59158,0 0,1 -4.59158,0 0,-1 0,0 z m 4.927493,0 1.833555,0 0,1 -1.833555,0 0,-1 z m 2.169468,0 4.319185,0 0,1 -4.319185,0 0,-1 0,0 z m 7.948201,0 1.152552,0 0,1 -1.152552,0 0,-1 z m -3.293103,0 2.95719,0 0,1 -2.95719,0 0,-1 z m 4.781568,0 0.675853,0 0,1 -0.675853,0 0,-1 z m 1.011766,0 1.833554,0 0,1 -1.833554,0 0,-1 z m -22.166446,-6 3.061572,0 0,1 -3.061572,0 0,-1 z m 3.38681,0 5.083544,0 0,1 -5.083544,0 0,-1 z m 5.408782,0 2.454976,0 0,1 -2.454976,0 0,-1 z m 5.39193,0 1.949485,0 0,1 -1.949485,0 0,-1 z m 2.274723,0 3.128973,0 0,1 -3.128973,0 0,-1 z m 3.454201,0 5.083554,0 0,1 -5.083554,0 0,-1 0,0 z m -8.34064,0 2.286488,0 0,1 -2.286488,0 0,-1 z M 5,8.002762 l 2.345838,0 0,1.0000001 -2.345838,0 0,-1.0000001 z m 2.665379,0 2.213403,0 0,1.0000001 -2.213403,0 0,-1.0000001 z m 2.532944,0 1.948514,0 0,1.0000001 -1.948514,0 0,-1.0000001 z m 2.268056,0 0.855871,0 0,1.0000001 -0.855871,0 0,-1.0000001 z m 1.175422,0 1.915398,0 0,1.0000001 -1.915398,0 0,-1.0000001 z m 2.234949,0 4.961553,0 0,1.0000001 -4.961553,0 0,-1.0000001 z m 5.281094,0 3.769581,0 0,1.0000001 -3.769581,0 0,-1.0000001 z m 4.089133,0 1.153856,0 0,1.0000001 -1.153856,0 0,-1.0000001 0,0 z m 1.473408,0 2.279615,0 0,1.0000001 -2.279615,0 0,-1.0000001 0,0 z m -21.720385,2 3.691819,0 0,1 -3.691819,0 0,-1 z m 4.028777,0 1.776155,0 0,1 -1.776155,0 0,-1 z m 2.113113,0 0.835125,0 0,1 -0.835125,0 0,-1 z m 1.172083,0 1.608115,0 0,1 -1.608115,0 0,-1 z m 1.945063,0 1.608116,0 0,1 -1.608116,0 0,-1 z m 1.945074,0 2.582749,0 0,1 -2.582749,0 0,-1 z m 2.919697,0 3.389353,0 0,1 -3.389353,0 0,-1 z m 3.726311,0 2.280274,0 0,1 -2.280274,0 0,-1 z m 2.617232,0 0.53265,0 0,1 -0.53265,0 0,-1 z m -20.46735,4 4.28514,0 0,1 -4.28514,0 0,-1 z m 4.621053,0 4.59158,0 0,1 -4.59158,0 0,-1 0,0 z m 4.927493,0 1.833555,0 0,1 -1.833555,0 0,-1 z m 2.169468,0 4.319185,0 0,1 -4.319185,0 0,-1 0,0 z m 7.948201,0 1.152552,0 0,1 -1.152552,0 0,-1 z m -3.293103,0 2.95719,0 0,1 -2.95719,0 0,-1 z m 4.781568,0 0.675853,0 0,1 -0.675853,0 0,-1 z m 1.011766,0 1.833554,0 0,1 -1.833554,0 0,-1 z m -22.166446,-2 3.061572,0 0,1 -3.061572,0 0,-1 z m 3.38681,0 5.083544,0 0,1 -5.083544,0 0,-1 z m 5.408782,0 2.454976,0 0,1 -2.454976,0 0,-1 z m 5.39193,0 1.949485,0 0,1 -1.949485,0 0,-1 z m 2.274723,0 3.128973,0 0,1 -3.128973,0 0,-1 z m 3.454201,0 5.083554,0 0,1 -5.083554,0 0,-1 0,0 z m -8.34064,0 2.286488,0 0,1 -2.286488,0 0,-1 z m -11.575806,4 1.633355,0 0,1 -1.633355,0 0,-1 z m 2.056056,0 5.943944,0 0,1 -5.943944,0 0,-1 0,0 z m -2.056056,18 3.691817,0 0,1 -3.691817,0 0,-1 z m 3.965761,0 1.776154,0 0,1 -1.776154,0 0,-1 0,0 z m 2.15092,0 0.835125,0 0,1 -0.835125,0 0,-1 z m 1.041852,0 1.608114,0 0,1 -1.608114,0 0,-1 z m 1.882048,0 1.608115,0 0,1 -1.608115,0 0,-1 z m 2.117317,0 2.582748,0 0,1 -2.582748,0 0,-1 z m 2.890296,0 3.389342,0 0,1 -3.389342,0 0,-1 z m 3.864929,0 2.280283,0 0,1 -2.280283,0 0,-1 z m 2.554218,0 0.532659,0 0,1 -0.532659,0 0,-1 0,0 z m -20.467341,-2 3.061572,0 0,1 -3.061572,0 0,-1 z m 3.38681,0 5.083544,0 0,1 -5.083544,0 0,-1 z m 5.408782,0 2.454976,0 0,1 -2.454976,0 0,-1 z m 5.39193,0 1.949485,0 0,1 -1.949485,0 0,-1 z m 2.274723,0 3.128973,0 0,1 -3.128973,0 0,-1 z m 3.454201,0 5.083554,0 0,1 -5.083554,0 0,-1 0,0 z m -8.34064,0 2.286488,0 0,1 -2.286488,0 0,-1 z m -11.575806,4 3.868703,0 0,1 -3.868703,0 0,-1 z m 4.188155,0 1.218185,0 0,1 -1.218185,0 0,-1 0,0 z m 1.537637,0 2.781317,0 0,1 -2.781317,0 0,-1 z m 3.100769,0 1.89781,0 0,1 -1.89781,0 0,-1 z m 2.217262,0 1.8978,0 0,1 -1.8978,0 0,-1 z m 2.217263,0 2.747329,0 0,1 -2.747329,0 0,-1 z m 3.066771,0 0.572556,0 0,1 -0.572556,0 0,-1 z m 0.892008,0 3.562873,0 0,1 -3.562873,0 0,-1 z m 3.882325,0 1.89781,0 0,1 -1.89781,0 0,-1 0,0 z m -21.10219,2 3.796419,0 0,1 -3.796419,0 0,-1 z m 6.256706,0 2.438723,0 0,1 -2.438723,0 0,-1 z m 2.788936,0 2.235065,0 0,1 -2.235065,0 0,-1 z m 5.990819,0 1.963539,0 0,1 -1.963539,0 0,-1 0,0 z m -1.125747,0 0.775544,0 0,1 -0.775544,0 0,-1 z m -2.279794,0 1.929581,0 0,1 -1.929581,0 0,-1 z m -7.484298,0 1.759881,0 0,1 -1.759881,0 0,-1 0,0 z"
     id="path3406"
     style="display:inline;opacity:0.7;fill:url(#linearGradient2436);fill-opacity:1;stroke:none" />
  <path
     d="m 22.617256,0.92402047 c 4.282522,0 2.15325,8.48317123 2.15325,8.48317123 0,0 10.357642,-1.8023467 10.357642,2.8187443 0,-2.6097232 -11.302304,-10.7285955 -12.510892,-11.30191553 z"
     id="path12038"
     style="display:inline;opacity:0.4;fill:#000000;fill-opacity:1;fill-rule:evenodd;stroke:none;filter:url(#filter3248)" />
  <path
     d="m 22.617256,0.92402047 c 3.186493,0 2.33576,7.66187843 2.33576,7.66187843 0,0 10.175132,-0.9810539 10.175132,3.6400371 0,-1.125939 0.08591,-1.932245 -0.133777,-2.2835927 C 33.416058,7.4181646 26.598855,1.7539432 24.137071,1.0115551 23.952849,0.9560005 23.544367,0.9240205 22.617256,0.9240205 Z"
     id="path4474"
     style="display:inline;fill:url(#linearGradient2432);fill-opacity:1;fill-rule:evenodd;stroke:none" />
</svg>
