<?xml version="1.0" encoding="UTF-8" standalone="no"?>
<!-- Created with Inkscape (http://www.inkscape.org/) -->

<svg
   xmlns:svg="http://www.w3.org/2000/svg"
   xmlns="http://www.w3.org/2000/svg"
   xmlns:xlink="http://www.w3.org/1999/xlink"
   version="1.0"
   width="100%"
   height="100%"
   viewBox="0 0 36.000004 45.005527"
   id="svg3323">
  <defs
     id="defs3325">
    <linearGradient
       id="linearGradient5048">
      <stop
         id="stop5050"
         style="stop-color:#000000;stop-opacity:0"
         offset="0" />
      <stop
         id="stop5056"
         style="stop-color:#000000;stop-opacity:1"
         offset="0.5" />
      <stop
         id="stop5052"
         style="stop-color:#000000;stop-opacity:0"
         offset="1" />
    </linearGradient>
    <linearGradient
       id="linearGradient5060">
      <stop
         id="stop5062"
         style="stop-color:#000000;stop-opacity:1"
         offset="0" />
      <stop
         id="stop5064"
         style="stop-color:#000000;stop-opacity:0"
         offset="1" />
    </linearGradient>
    <linearGradient
       id="linearGradient3104">
      <stop
         id="stop3106"
         style="stop-color:#aaaaaa;stop-opacity:1"
         offset="0" />
      <stop
         id="stop3108"
         style="stop-color:#c8c8c8;stop-opacity:1"
         offset="1" />
    </linearGradient>
    <linearGradient
       id="linearGradient3600">
      <stop
         id="stop3602"
         style="stop-color:#f4f4f4;stop-opacity:1"
         offset="0" />
      <stop
         id="stop3604"
         style="stop-color:#dbdbdb;stop-opacity:1"
         offset="1" />
    </linearGradient>
    <radialGradient
       cx="102"
       cy="112.3047"
       r="139.55859"
       id="XMLID_8_"
       gradientUnits="userSpaceOnUse">
      <stop
         id="stop41"
         style="stop-color:#b7b8b9;stop-opacity:1"
         offset="0" />
      <stop
         id="stop47"
         style="stop-color:#ececec;stop-opacity:1"
         offset="0.18851049" />
      <stop
         id="stop49"
         style="stop-color:#fafafa;stop-opacity:0"
         offset="0.25718147" />
      <stop
         id="stop51"
         style="stop-color:#ffffff;stop-opacity:0"
         offset="0.30111277" />
      <stop
         id="stop53"
         style="stop-color:#fafafa;stop-opacity:0"
         offset="0.53130001" />
      <stop
         id="stop55"
         style="stop-color:#ebecec;stop-opacity:0"
         offset="0.84490001" />
      <stop
         id="stop57"
         style="stop-color:#e1e2e3;stop-opacity:0"
         offset="1" />
    </radialGradient>
    <linearGradient
       id="linearGradient3211">
      <stop
         id="stop3213"
         style="stop-color:#ffffff;stop-opacity:1"
         offset="0" />
      <stop
         id="stop3215"
         style="stop-color:#ffffff;stop-opacity:0"
         offset="1" />
    </linearGradient>
    <filter
       x="-0.14846256"
       y="-0.16434373"
       width="1.2969251"
       height="1.3286875"
       id="filter3212"
       style="color-interpolation-filters:sRGB">
      <feGaussianBlur
         id="feGaussianBlur3214"
         stdDeviation="0.77391625" />
    </filter>
    <linearGradient
       id="linearGradient8589">
      <stop
         id="stop8591"
         style="stop-color:#fefefe;stop-opacity:1"
         offset="0" />
      <stop
         id="stop8593"
         style="stop-color:#cbcbcb;stop-opacity:1"
         offset="1" />
    </linearGradient>
    <linearGradient
       x1="32.892288"
       y1="8.0590115"
       x2="36.358372"
       y2="5.4565363"
       id="linearGradient2431"
       xlink:href="#linearGradient8589"
       gradientUnits="userSpaceOnUse"
       gradientTransform="matrix(0.9976985,0,0,1.0406866,-5.8361971,-1.1030318)" />
    <linearGradient
       x1="24"
       y1="1.9999999"
       x2="24"
       y2="46.01725"
       id="linearGradient2435"
       xlink:href="#linearGradient3211"
       gradientUnits="userSpaceOnUse"
       gradientTransform="matrix(1,0,0,0.9777778,-6,-0.96390715)" />
    <radialGradient
       cx="102"
       cy="112.3047"
       r="139.55859"
       id="radialGradient2438"
       xlink:href="#XMLID_8_"
       gradientUnits="userSpaceOnUse"
       gradientTransform="matrix(0.3617022,0,0,-0.3907784,-5.1489363,47.519766)" />
    <linearGradient
       x1="25.132275"
       y1="0.98520643"
       x2="25.132275"
       y2="47.013336"
       id="linearGradient2441"
       xlink:href="#linearGradient3600"
       gradientUnits="userSpaceOnUse"
       gradientTransform="matrix(1,0,0,0.9561695,-6.0000001,-1.9121599)" />
    <linearGradient
       x1="-51.786404"
       y1="50.786446"
       x2="-51.786404"
       y2="2.9062471"
       id="linearGradient2443"
       xlink:href="#linearGradient3104"
       gradientUnits="userSpaceOnUse"
       gradientTransform="matrix(0.8074968,0,0,0.8948322,53.410232,-2.9777912)" />
    <radialGradient
       cx="605.71429"
       cy="486.64789"
       r="117.14286"
       fx="605.71429"
       fy="486.64789"
       id="radialGradient2446"
       xlink:href="#linearGradient5060"
       gradientUnits="userSpaceOnUse"
       gradientTransform="matrix(0.02303995,0,0,0.01470022,26.360882,37.040176)" />
    <radialGradient
       cx="605.71429"
       cy="486.64789"
       r="117.14286"
       fx="605.71429"
       fy="486.64789"
       id="radialGradient2449"
       xlink:href="#linearGradient5060"
       gradientUnits="userSpaceOnUse"
       gradientTransform="matrix(-0.02303994,0,0,0.01470022,21.62311,37.040176)" />
    <linearGradient
       x1="302.85715"
       y1="366.64789"
       x2="302.85715"
       y2="609.50507"
       id="linearGradient2452"
       xlink:href="#linearGradient5048"
       gradientUnits="userSpaceOnUse"
       gradientTransform="matrix(0.06732488,0,0,0.01470022,-0.3411391,37.040146)" />
  </defs>
  <path
     d="m 0.49996093,0.49996093 c 8.02029507,0 16.04059007,0 24.06088607,0 1.406933,0.4746531 8.965454,5.88220457 10.939195,9.62640607 0,11.459733 0,22.919465 0,34.379198 -11.666694,0 -23.333387,0 -35.00008107,0 0,-14.668535 0,-29.33707 0,-44.00560407 z"
     id="path4160"
     style="display:inline;fill:url(#linearGradient2441);fill-opacity:1;stroke:url(#linearGradient2443);stroke-width:0.99992186;stroke-linecap:butt;stroke-linejoin:round;stroke-miterlimit:4;stroke-dasharray:none;stroke-dashoffset:0;stroke-opacity:1" />
  <path
     d="m 1.3617017,44.002762 c -0.199297,0 -0.36170197,-0.175459 -0.36170197,-0.39078 l 0,-42.2040498 c 0,-0.2157088 0.16240497,-0.3907775 0.36170197,-0.3907775 C 8.844793,1.1251694 17.137385,0.85557972 24.611384,1.0440493 L 34.894021,9.9100748 35,43.611982 c 0,0.215321 -0.162043,0.39078 -0.361703,0.39078 l -33.2765953,0 z"
     id="path4191"
     style="fill:url(#radialGradient2438);fill-opacity:1" />
  <path
     d="m 34.500039,10.261573 c 0,10.949037 0,22.31441 0,33.263447 -11.000026,0 -22.000052,0 -33.0000781,0 0,-14.014841 0,-28.029681 0,-42.0445212 7.5619931,0 15.3043341,0 22.8663281,0"
     id="path2435"
     style="display:inline;opacity:0.6;fill:none;stroke:url(#linearGradient2435);stroke-width:0.9999218;stroke-linecap:butt;stroke-linejoin:round;stroke-miterlimit:4;stroke-dasharray:none;stroke-dashoffset:0;stroke-opacity:1" />
  <path
     d="m 22.617256,0.92402047 c 4.282522,0 2.15325,8.48317123 2.15325,8.48317123 0,0 10.357642,-1.8023467 10.357642,2.8187443 0,-2.6097232 -11.302304,-10.7285955 -12.510892,-11.30191553 z"
     id="path12038"
     style="display:inline;opacity:0.4;fill:#000000;fill-opacity:1;fill-rule:evenodd;stroke:none;filter:url(#filter3212)" />
  <path
     d="m 22.617256,0.92402047 c 3.186493,0 2.33576,7.66187843 2.33576,7.66187843 0,0 10.175132,-0.9810539 10.175132,3.6400371 0,-1.125939 0.08591,-1.932245 -0.133777,-2.2835927 C 33.416058,7.4181646 26.598855,1.7539432 24.137071,1.0115551 23.952849,0.9560005 23.544367,0.9240205 22.617256,0.9240205 Z"
     id="path4474"
     style="display:inline;fill:url(#linearGradient2431);fill-opacity:1;fill-rule:evenodd;stroke:none" />
  <path
     d="m 12,23.216005 c 0.258151,0.701773 0.548718,1.270613 1.167657,0.492802 0.767347,-0.456552 3.33844,-2.457757 3.081171,-0.497532 -0.823263,3.627282 -1.825356,7.216418 -2.59157,10.854872 -0.801185,1.992218 1.01815,3.794264 2.917669,2.498714 2.019065,-0.832341 3.756466,-2.188081 5.531417,-3.431768 -0.24218,-0.593933 -0.403597,-1.447113 -1.072765,-0.670385 -0.878653,0.398809 -2.797726,2.279047 -3.154255,0.728272 0.73806,-3.927689 2.105519,-7.709984 2.979622,-11.606358 0.804401,-1.791543 -0.509345,-4.055223 -2.475872,-2.573235 C 16.027124,20.03748 14.056932,21.713644 12,23.216005 Z m 8.74369,-13.210166 c -2.403766,-0.1275656 -3.660538,3.747372 -1.376255,4.807729 1.853222,0.760024 3.871049,-1.140692 3.418314,-3.039945 -0.140499,-0.988957 -1.028394,-1.8010506 -2.042058,-1.767784 l -10e-7,0 z"
     id="text3482"
     style="font-style:normal;font-variant:normal;font-weight:bold;font-stretch:normal;font-size:40px;line-height:100%;font-family:'URW Palladio L';-inkscape-font-specification:'URW Palladio L Bold';text-align:start;writing-mode:lr-tb;text-anchor:start;opacity:0.4;fill:#000000;fill-opacity:1;stroke:none" />
  <path
     d="m 12,24.216005 c 0.258151,0.701773 0.548718,1.270613 1.167657,0.492802 0.767347,-0.456552 3.33844,-2.457757 3.081171,-0.497532 -0.823263,3.627282 -1.825356,7.216418 -2.59157,10.854872 -0.801185,1.992218 1.01815,3.794264 2.917669,2.498714 2.019065,-0.832341 3.756466,-2.188081 5.531417,-3.431768 -0.24218,-0.593933 -0.403597,-1.447113 -1.072765,-0.670385 -0.878653,0.398809 -2.797726,2.279047 -3.154255,0.728272 0.73806,-3.927689 2.105519,-7.709984 2.979622,-11.606358 0.804401,-1.791543 -0.509345,-4.055223 -2.475872,-2.573235 C 16.027124,21.03748 14.056932,22.713644 12,24.216005 Z m 8.74369,-13.210166 c -2.403766,-0.127566 -3.660538,3.747372 -1.376255,4.807729 1.853222,0.760024 3.871049,-1.140692 3.418314,-3.039945 -0.140499,-0.988957 -1.028394,-1.801051 -2.042058,-1.767784 l -10e-7,0 z"
     id="path3536"
     style="font-style:normal;font-variant:normal;font-weight:bold;font-stretch:normal;font-size:40px;line-height:100%;font-family:'URW Palladio L';-inkscape-font-specification:'URW Palladio L Bold';text-align:start;writing-mode:lr-tb;text-anchor:start;opacity:0.4;fill:#ffffff;fill-opacity:1;stroke:none" />
</svg>
