<?xml version="1.0" encoding="UTF-8" standalone="no"?>
<!-- Created with Inkscape (http://www.inkscape.org/) -->
<svg
   xmlns:svg="http://www.w3.org/2000/svg"
   xmlns="http://www.w3.org/2000/svg"
   xmlns:xlink="http://www.w3.org/1999/xlink"
   xmlns:inkscape="http://www.inkscape.org/namespaces/inkscape"
   version="1.0"
   width="100%"
   height="100%"
   viewBox="0 0 36.000004 45.005527"
   id="svg4250">
  <defs
     id="defs4252">
    <linearGradient
       id="linearGradient5048">
      <stop
         id="stop5050"
         style="stop-color:#000000;stop-opacity:0"
         offset="0" />
      <stop
         id="stop5056"
         style="stop-color:#000000;stop-opacity:1"
         offset="0.5" />
      <stop
         id="stop5052"
         style="stop-color:#000000;stop-opacity:0"
         offset="1" />
    </linearGradient>
    <linearGradient
       x1="302.85715"
       y1="366.64789"
       x2="302.85715"
       y2="609.50507"
       id="linearGradient2631"
       xlink:href="#linearGradient5048"
       gradientUnits="userSpaceOnUse"
       gradientTransform="matrix(0.06732488,0,0,0.01470022,-0.3411391,37.040146)" />
    <radialGradient
       cx="605.71429"
       cy="486.64789"
       r="117.14286"
       fx="605.71429"
       fy="486.64789"
       id="radialGradient2628"
       xlink:href="#linearGradient5060"
       gradientUnits="userSpaceOnUse"
       gradientTransform="matrix(-0.02303994,0,0,0.01470022,21.62311,37.040176)" />
    <linearGradient
       id="linearGradient5060">
      <stop
         id="stop5062"
         style="stop-color:#000000;stop-opacity:1"
         offset="0" />
      <stop
         id="stop5064"
         style="stop-color:#000000;stop-opacity:0"
         offset="1" />
    </linearGradient>
    <radialGradient
       cx="605.71429"
       cy="486.64789"
       r="117.14286"
       fx="605.71429"
       fy="486.64789"
       id="radialGradient2625"
       xlink:href="#linearGradient5060"
       gradientUnits="userSpaceOnUse"
       gradientTransform="matrix(0.02303995,0,0,0.01470022,26.360882,37.040176)" />
    <linearGradient
       x1="-51.786404"
       y1="50.786446"
       x2="-51.786404"
       y2="2.9062471"
       id="linearGradient2622"
       xlink:href="#linearGradient3104"
       gradientUnits="userSpaceOnUse"
       gradientTransform="matrix(0.8074968,0,0,0.8948322,59.410232,-2.9805533)" />
    <linearGradient
       id="linearGradient3600">
      <stop
         id="stop3602"
         style="stop-color:#f4f4f4;stop-opacity:1"
         offset="0" />
      <stop
         id="stop3604"
         style="stop-color:#dbdbdb;stop-opacity:1"
         offset="1" />
    </linearGradient>
    <linearGradient
       x1="25.132275"
       y1="0.98520643"
       x2="25.132275"
       y2="47.013336"
       id="linearGradient2620"
       xlink:href="#linearGradient3600"
       gradientUnits="userSpaceOnUse"
       gradientTransform="matrix(1,0,0,0.9561695,-1.0064697e-7,-1.914922)" />
    <radialGradient
       cx="102"
       cy="112.3047"
       r="139.55859"
       id="XMLID_8_"
       gradientUnits="userSpaceOnUse">
      <stop
         id="stop41"
         style="stop-color:#b7b8b9;stop-opacity:1"
         offset="0" />
      <stop
         id="stop47"
         style="stop-color:#ececec;stop-opacity:1"
         offset="0.18851049" />
      <stop
         id="stop49"
         style="stop-color:#fafafa;stop-opacity:0"
         offset="0.25718147" />
      <stop
         id="stop51"
         style="stop-color:#ffffff;stop-opacity:0"
         offset="0.30111277" />
      <stop
         id="stop53"
         style="stop-color:#fafafa;stop-opacity:0"
         offset="0.53130001" />
      <stop
         id="stop55"
         style="stop-color:#ebecec;stop-opacity:0"
         offset="0.84490001" />
      <stop
         id="stop57"
         style="stop-color:#e1e2e3;stop-opacity:0"
         offset="1" />
    </radialGradient>
    <radialGradient
       cx="102"
       cy="112.3047"
       r="139.55859"
       id="radialGradient2617"
       xlink:href="#XMLID_8_"
       gradientUnits="userSpaceOnUse"
       gradientTransform="matrix(0.3617022,0,0,-0.3907784,0.8510637,47.517004)" />
    <linearGradient
       id="linearGradient3211">
      <stop
         id="stop3213"
         style="stop-color:#ffffff;stop-opacity:1"
         offset="0" />
      <stop
         id="stop3215"
         style="stop-color:#ffffff;stop-opacity:0"
         offset="1" />
    </linearGradient>
    <linearGradient
       x1="24"
       y1="1.9999999"
       x2="24"
       y2="46.01725"
       id="linearGradient2614"
       xlink:href="#linearGradient3211"
       gradientUnits="userSpaceOnUse"
       gradientTransform="matrix(1,0,0,0.9777778,0,-0.9666693)" />
    <filter
       id="filter3212"
       x="-0.14846256"
       width="1.2969251"
       y="-0.16434373"
       height="1.3286875">
      <feGaussianBlur
         inkscape:collect="always"
         stdDeviation="0.77391625"
         id="feGaussianBlur3214" />
    </filter>
    <linearGradient
       id="linearGradient8589">
      <stop
         id="stop8591"
         style="stop-color:#fefefe;stop-opacity:1"
         offset="0" />
      <stop
         id="stop8593"
         style="stop-color:#cbcbcb;stop-opacity:1"
         offset="1" />
    </linearGradient>
    <linearGradient
       x1="32.892288"
       y1="8.0590115"
       x2="36.358372"
       y2="5.4565363"
       id="linearGradient2610"
       xlink:href="#linearGradient8589"
       gradientUnits="userSpaceOnUse"
       gradientTransform="matrix(0.9976985,0,0,1.0406866,0.1638029,-1.1057939)" />
    <linearGradient
       id="linearGradient3104">
      <stop
         id="stop3106"
         style="stop-color:#aaaaaa;stop-opacity:1"
         offset="0" />
      <stop
         id="stop3108"
         style="stop-color:#c8c8c8;stop-opacity:1"
         offset="1" />
    </linearGradient>
    <linearGradient
       x1="17.424658"
       y1="44.872871"
       x2="17.424658"
       y2="-0.02739726"
       id="linearGradient3055"
       xlink:href="#linearGradient3104"
       gradientUnits="userSpaceOnUse"
       gradientTransform="translate(0.0301304,2.4578186e-7)" />
    <linearGradient
       id="linearGradient4114">
      <stop
         id="stop4116"
         style="stop-color:#000000;stop-opacity:1"
         offset="0" />
      <stop
         id="stop4118"
         style="stop-color:#000000;stop-opacity:0"
         offset="1" />
    </linearGradient>
    <radialGradient
       cx="15.115514"
       cy="63.965389"
       r="12.289036"
       fx="15.115514"
       fy="63.965389"
       id="radialGradient3121"
       xlink:href="#linearGradient4114"
       gradientUnits="userSpaceOnUse"
       gradientTransform="scale(1.64399,0.608276)" />
    <linearGradient
       id="linearGradient3230">
      <stop
         id="stop3232"
         style="stop-color:#ffefa7;stop-opacity:1"
         offset="0" />
      <stop
         id="stop3234"
         style="stop-color:#ffc64c;stop-opacity:1"
         offset="1" />
    </linearGradient>
    <radialGradient
       cx="23.51512"
       cy="23.14295"
       r="9.0193043"
       fx="23.51512"
       fy="23.14295"
       id="radialGradient4234"
       xlink:href="#linearGradient3230"
       gradientUnits="userSpaceOnUse"
       gradientTransform="matrix(1.381364e-7,1.3721706,-1.4915022,1.5014951e-7,58.032876,-9.1427758)" />
    <linearGradient
       x1="94.693123"
       y1="112.51051"
       x2="94.693123"
       y2="64.052887"
       id="linearGradient3132"
       xlink:href="#linearGradient4126"
       gradientUnits="userSpaceOnUse"
       gradientTransform="matrix(0.217175,0,0,0.217175,5.40714,4.169118)" />
    <linearGradient
       id="linearGradient4244">
      <stop
         id="stop4246"
         style="stop-color:#b27700;stop-opacity:1"
         offset="0" />
      <stop
         id="stop4248"
         style="stop-color:#c79f00;stop-opacity:1"
         offset="1" />
    </linearGradient>
    <linearGradient
       x1="29.812393"
       y1="36.000034"
       x2="29.812393"
       y2="16.857258"
       id="linearGradient4242"
       xlink:href="#linearGradient4244"
       gradientUnits="userSpaceOnUse" />
    <linearGradient
       id="linearGradient3921">
      <stop
         id="stop3923"
         style="stop-color:#ffffff;stop-opacity:1"
         offset="0" />
      <stop
         id="stop3925"
         style="stop-color:#ffffff;stop-opacity:0"
         offset="1" />
    </linearGradient>
    <linearGradient
       x1="31.121452"
       y1="17.856991"
       x2="31.121452"
       y2="35.007767"
       id="linearGradient3927"
       xlink:href="#linearGradient3921"
       gradientUnits="userSpaceOnUse" />
    <linearGradient
       id="linearGradient3993">
      <stop
         id="stop3995"
         style="stop-color:#a3c0d0;stop-opacity:1"
         offset="0" />
      <stop
         id="stop4001"
         style="stop-color:#427da1;stop-opacity:1"
         offset="1" />
    </linearGradient>
    <radialGradient
       cx="22.503616"
       cy="23.333052"
       r="9.0009785"
       fx="22.503616"
       fy="23.333052"
       id="radialGradient4129"
       xlink:href="#linearGradient3993"
       gradientUnits="userSpaceOnUse"
       gradientTransform="matrix(0,-1.4011311,1.3225619,0,-7.3801392,54.41606)" />
    <linearGradient
       id="linearGradient4126">
      <stop
         id="stop4128"
         style="stop-color:#ffffff;stop-opacity:1"
         offset="0" />
      <stop
         id="stop4130"
         style="stop-color:#ffffff;stop-opacity:0.16494845"
         offset="1" />
    </linearGradient>
    <linearGradient
       x1="94.693123"
       y1="112.51051"
       x2="94.693123"
       y2="64.052887"
       id="linearGradient3144"
       xlink:href="#linearGradient4126"
       gradientUnits="userSpaceOnUse"
       gradientTransform="matrix(0.217175,0,0,0.217175,-1.394331,-2.867892)" />
    <linearGradient
       id="linearGradient2490">
      <stop
         id="stop2492"
         style="stop-color:#2e4a5a;stop-opacity:1"
         offset="0" />
      <stop
         id="stop2494"
         style="stop-color:#6e8796;stop-opacity:1"
         offset="1" />
    </linearGradient>
    <linearGradient
       x1="17.848959"
       y1="29.074141"
       x2="17.848959"
       y2="10"
       id="linearGradient4137"
       xlink:href="#linearGradient2490"
       gradientUnits="userSpaceOnUse" />
    <linearGradient
       id="linearGradient4147">
      <stop
         id="stop4149"
         style="stop-color:#ffffff;stop-opacity:1"
         offset="0" />
      <stop
         id="stop4151"
         style="stop-color:#ffffff;stop-opacity:0"
         offset="1" />
    </linearGradient>
    <linearGradient
       x1="25.314978"
       y1="10.905374"
       x2="25.314978"
       y2="35.926235"
       id="linearGradient4153"
       xlink:href="#linearGradient4147"
       gradientUnits="userSpaceOnUse" />
  </defs>
  <g
     id="layer1"
     transform="translate(-6,0.00276215)">
    <path
       d="m 6.4999609,0.49719878 c 8.0202951,0 16.0405901,0 24.0608861,0 1.406933,0.4746531 8.965454,5.88220462 10.939195,9.62640622 0,11.459733 0,22.919465 0,34.379198 -11.666694,0 -23.333387,0 -35.0000811,0 0,-14.668535 0,-29.33707 0,-44.00560422 z"
       id="path4160"
       style="display:inline;fill:url(#linearGradient2620);fill-opacity:1;stroke:url(#linearGradient2622);stroke-width:0.99992186;stroke-linecap:butt;stroke-linejoin:round;stroke-miterlimit:4;stroke-dasharray:none;stroke-dashoffset:0;stroke-opacity:1" />
    <path
       d="m 7.3617017,44 c -0.199297,0 -0.361702,-0.175459 -0.361702,-0.39078 l 0,-42.2040499 c 0,-0.2157088 0.162405,-0.3907775 0.361702,-0.3907775 C 14.844793,1.1224073 23.137385,0.85281757 30.611384,1.0412872 L 40.894021,9.9073127 41,43.60922 C 41,43.824541 40.837957,44 40.638297,44 L 7.3617017,44 Z"
       id="path4191"
       style="fill:url(#radialGradient2617);fill-opacity:1" />
    <path
       d="m 40.500039,10.258811 c 0,10.949037 0,22.31441 0,33.263447 -11.000026,0 -22.000052,0 -33.0000781,0 0,-14.014841 0,-28.029681 0,-42.0445213 7.5619931,0 15.3043341,0 22.8663281,0"
       id="path2435"
       style="display:inline;opacity:0.6;fill:none;fill-opacity:1;stroke:url(#linearGradient2614);stroke-width:0.9999218;stroke-linecap:butt;stroke-linejoin:round;stroke-miterlimit:4;stroke-dasharray:none;stroke-dashoffset:0;stroke-opacity:1" />
    <path
       d="m 28.617256,0.92125832 c 4.282522,0 2.15325,8.48317128 2.15325,8.48317128 0,0 10.357642,-1.8023467 10.357642,2.8187444 0,-2.6097233 -11.302304,-10.7285956 -12.510892,-11.30191568 z"
       id="path12038"
       style="display:inline;opacity:0.4;fill:#000000;fill-opacity:1;fill-rule:evenodd;stroke:none;stroke-width:1px;stroke-linecap:butt;stroke-linejoin:miter;stroke-opacity:1;filter:url(#filter3212)" />
    <path
       d="m 28.617256,0.92125832 c 3.186493,0 2.33576,7.66187848 2.33576,7.66187848 0,0 10.175132,-0.9810539 10.175132,3.6400372 0,-1.125939 0.08591,-1.932245 -0.133777,-2.2835928 C 39.416058,7.4154025 32.598855,1.7511811 30.137071,1.008793 29.952849,0.95323837 29.544367,0.92125832 28.617256,0.92125832 Z"
       id="path4474"
       style="display:inline;fill:url(#linearGradient2610);fill-opacity:1;fill-rule:evenodd;stroke:none;stroke-width:1px;stroke-linecap:butt;stroke-linejoin:miter;stroke-opacity:1" />
    <path
       d="m 11,37 3.036746,0 0,1 L 11,38 11,37 Z m 0,-22 0,1 3.0625,0 0,-1 L 11,15 Z m 0,2 0,1 3.09375,0 0,-1 L 11,17 Z m 0,-11 0,1 2.375,0 0,-1 L 11,6 Z m 2.6875,0 0,1 2.25,0 0,-1 -2.25,0 z m 2.5625,0 0,1 1.96875,0 0,-1 L 16.25,6 Z m 2.28125,0 0,1 0.875,0 0,-1 -0.875,0 z m 1.1875,0 0,1 1.9375,0 0,-1 -1.9375,0 z M 22,6 l 0,1 5,0 0,-1 -5,0 z m -11,2 0,1 3.78125,0 0,-1 L 11,8 Z m 4.15625,0 0,1 1.8125,0 0,-1 -1.8125,0 z m 2.15625,0 0,1 0.84375,0 0,-1 -0.84375,0 z m 1.21875,0 0,1 1.625,0 0,-1 -1.625,0 z m 2,0 0,1 1.625,0 0,-1 -1.625,0 z M 22.5,8 l 0,1 2.65625,0 0,-1 L 22.5,8 Z m 3.03125,0 0,1 L 29,9 29,8 25.53125,8 Z M 11,10 l 0,1 4.1875,0 0,-1 L 11,10 Z m 4.5,0 0,1 4.5,0 0,-1 -4.5,0 z m -4.5,2 0,1 2.3125,0 0,-1 L 11,12 Z m 2.625,0 0,1 2.15625,0 0,-1 -2.15625,0 z m 2.46875,0 0,1 1.90625,0 0,-1 -1.90625,0 z m 12.21875,18.125 0,0.96875 3.53125,0 0,-0.96875 -3.53125,0 z m -8.375,6.875 0,1 2.4375,0 0,-1 -2.4375,0 z m 2.75,0 0,1 2.25,0 0,-1 -2.25,0 z m 2.59375,0 0,1 1.9375,0 0,-1 -1.9375,0 z m 2.25,0 0,1 3.09375,0 0,-1 -3.09375,0 z m 3.4375,0 0,1 5.03125,0 0,-1 -5.03125,0 z m -16.5625,-22 0,1 5.59375,0 0,-1 -5.59375,0 z m 1.21875,18 0,1 4.59375,0 0,-1 -4.59375,0 z m 15.03125,0 0,1 1.15625,0 0,-1 -1.15625,0 z m 1.5,0 0,1 0.6875,0 0,-1 -0.6875,0 z m 1,0 0,1 1.84375,0 0,-1 -1.84375,0 z m -16.03125,2 0,1 0.8125,0 0,-1 -0.8125,0 z m 1.03125,0 0,1 1.625,0 0,-1 -1.625,0 z m 1.875,0 0,1 1.625,0 0,-1 -1.625,0 z m 5.03125,0 0,1 3.375,0 0,-1 -3.375,0 z m 3.84375,0 0,1 2.28125,0 0,-1 -2.28125,0 z m 2.5625,0 0,1 L 32,36 32,35 31.46875,35 Z M 11,22 l 0,1 1,0 0,-1 -1,0 z m 2.5625,8.15625 0,0.96875 2.125,0 0,-0.96875 -2.125,0 z M 11,33 l 0,1 4.28125,0 0,-1 L 11,33 Z m 0,2 0,1 3.6875,0 0,-1 L 11,35 Z m 3.96875,0 0,1 1.78125,0 0,-1 -1.78125,0 z m -0.625,2 0,1 3.34375,0 0,-1 -3.34375,0 z M 11,20 l 0,1 2.34375,0 0,-1 L 11,20 Z m 0,4 0,1 2.75,0 0,-1 -2.75,0 z m 0,2 0,1 2.9375,0 0,-1 L 11,26 Z m 0,2 0,1 2.53125,0 0,-1 L 11,28 Z m 0,2.15625 0,0.96875 2.21875,0 0,-0.96875 -2.21875,0 z"
       id="path4009"
       style="display:inline;overflow:visible;visibility:visible;opacity:1;fill:url(#linearGradient3055);fill-opacity:1;fill-rule:nonzero;stroke:none;stroke-width:0.45541501;stroke-linecap:square;stroke-linejoin:miter;stroke-miterlimit:4;stroke-dasharray:none;stroke-dashoffset:0;stroke-opacity:1;marker:none;marker-start:none;marker-mid:none;marker-end:none;enable-background:accumulate" />
    <path
       d="m 45.052803,38.908627 a 20.203051,7.4751287 0 1 1 -40.4061012,0 20.203051,7.4751287 0 1 1 40.4061012,0 z"
       transform="matrix(0.6929647,0,0,0.6688848,6.7799997,5.9746108)"
       id="path2917"
       style="display:inline;opacity:0.3;fill:url(#radialGradient3121);fill-opacity:1;stroke:none;stroke-opacity:1" />
    <path
       d="m 30.18667,32.107784 c 0,1.676591 -1.455073,2.525745 -2.931863,2.949236 -2.2217,0.638495 -4.004707,0.540766 -5.861553,0 -1.55063,-0.451724 -2.931863,-1.374717 -2.931863,-2.949236 l 0,-5.531447 c 0,-1.591893 1.326939,-2.951409 2.931863,-2.951409 l 5.767803,-0.375 c 1.952403,0 3.228414,-1.218699 3.228414,-3.218881 l 0.53125,-2.673789 2.197811,0 c 1.706995,0 2.510543,1.268302 2.931863,2.949236 0.586372,2.334631 0.612433,4.080719 0,5.900645 -0.592888,1.767805 -1.227039,2.949236 -2.931863,2.949236 l -2.931862,0 -5.861554,0 0,-0.0116 5.861554,0 0,2.963013 z"
       id="path2732"
       style="fill:url(#radialGradient4234);fill-opacity:1;stroke:none;stroke-opacity:1" />
    <path
       d="m 26.522927,32.47481 c 0,-0.610262 0.492988,-1.105421 1.098906,-1.105421 0.60809,0 1.098905,0.495159 1.098905,1.105421 0,0.612433 -0.490815,1.107592 -1.098905,1.107592 -0.605918,0 -1.098906,-0.495159 -1.098906,-1.107592 z"
       id="path2736"
       style="fill:#ffffff" />
    <path
       d="m 30.914374,17.35699 0,2.59375 c 0,1.640774 -3.381693,3.6875 -3.65625,3.6875 l -5.75,0 -1.237873,0.125933 c -1.260993,0.323209 -1.108795,1.148051 -1.480877,2.686567 -0.138681,0.569822 -0.242268,1.10309 -0.3125,1.59375 -0.005,0.03505 0.0047,0.05895 0,0.09375 l 0,1.625 c 3.835679,-4.280036 7.927476,-4.602947 9.96875,-4.59375 4.073459,0.01795 5.991982,-0.983717 7.9375,-3.1875 -0.0062,-0.04328 0.0067,-0.08135 0,-0.125 -0.07487,-0.491048 -0.206319,-1.015321 -0.34375,-1.5625 -0.197494,-0.787938 -0.455851,-1.481526 -0.875,-2 -0.0084,-0.01037 -0.02276,-0.02102 -0.03125,-0.03125 -0.0048,-0.0035 -0.02642,0.0035 -0.03125,0 -0.01428,-0.01688 -0.01666,-0.04603 -0.03125,-0.0625 -0.02936,-0.02071 -0.03243,-0.04259 -0.0625,-0.0625 -0.0075,-0.008 -0.02372,0.0079 -0.03125,0 -0.444356,-0.288028 -0.984036,-0.503419 -1.53125,-0.59375 -0.495974,-0.08177 -0.993728,-0.144486 -1.5,-0.1875 l -0.3125,0 -0.71875,0 z"
       id="path2742"
       style="display:inline;opacity:0.6;fill:url(#linearGradient3132);fill-opacity:1;stroke:none;stroke-opacity:1" />
    <path
       d="m 30.480513,32.107784 c 0,1.676591 -1.748916,2.525745 -3.225706,2.949236 -2.2217,0.638495 -4.004707,0.540766 -5.861553,0 -1.55063,-0.451724 -2.931863,-1.374717 -2.931863,-2.949236 l 0,-5.82529 c 0,-1.886203 1.368916,-2.909432 2.931863,-2.909432 l 5.21314,-0.03125 c 1.952403,0 3.928452,-1.998083 3.928452,-3.998265 l 0,-1.986289 2.583686,0 c 1.706995,0 2.510543,1.268302 2.931863,2.949236 0.586372,2.334631 0.612433,4.080719 0,5.900645 -0.592888,1.767805 -1.227039,3.159124 -2.931863,3.159124 l -2.638019,0 -6.155397,0 0,-0.0116 6.155397,0.02099 0,2.732136 z"
       id="path2744"
       style="fill:none;fill-opacity:1;stroke:url(#linearGradient4242);stroke-opacity:1" />
    <path
       d="m 31.036575,17.85699 0,1.46875 c 0,2.285741 -2.350449,4.560633 -4.590951,4.560634 l -5.0625,0 c -1.32256,0 -2.406249,1.375326 -2.40625,2.689366 l 0,5.53125 c 0,0.641053 0.228445,1.119117 0.6875,1.53125 0.459055,0.412133 1.149206,0.726064 1.875,0.9375 1.789873,0.521261 3.422072,0.615138 5.5625,0 0.695102,-0.19933 1.619873,-0.57688 2.085121,-0.979711 0.465248,-0.402831 0.802472,-0.795389 0.802472,-1.489039 l 0,-2.227612 -5.668843,0 -0.5,0 0,-0.5 0,-0.03125 0,-0.5 0.5,0 5.875,0 0.5,0 0,0.03125 2.4375,0 c 0.736913,0 1.097228,-0.289966 1.46327,-0.713969 0.366042,-0.424003 0.684195,-1.256133 0.97423,-2.120919 0.580232,-1.724237 0.572874,-3.3441 0,-5.625 -0.199645,-0.79652 -0.489549,-1.439798 -0.875,-1.875 -0.385451,-0.435202 -0.832837,-0.6875 -1.5625,-0.6875 l -2.096549,0 z m 1,1 1.096549,0 c 0.319213,0 0.736015,0.257393 0.8125,0.34375 0.222502,0.25122 0.478636,0.760125 0.65625,1.46875 0.545884,2.173439 0.547081,3.52964 0.03125,5.0625 -0.277212,0.826554 -0.564933,1.604269 -0.78125,1.834888 -0.19535,0.208265 -0.608081,0.3125 -0.71875,0.3125 l -1.4375,0 0,-0.03125 -1.5,0 -5.875,0 -1.5,0 0,1.5 0,0.03125 0,1.5 1.5,0 4.668843,0 0,1.227612 c 0,0.446173 -0.597309,0.723505 -0.700093,0.8125 -0.299009,0.258894 -0.828985,0.513 -1.4375,0.6875 -1.977888,0.568426 -3.375324,0.482252 -5.03125,0 -0.626751,-0.182583 -1.169858,-0.450409 -1.46875,-0.71875 -0.007,-0.0063 -0.0242,-0.02468 -0.03125,-0.03125 -0.04214,-0.0405 -0.09399,-0.09133 -0.125,-0.125 -0.0293,-0.03521 -0.07291,-0.09344 -0.09375,-0.125 -0.01166,-0.01898 -0.04784,-0.06906 -0.0625,-0.09375 -0.01517,-0.03504 -0.02221,-0.0859 -0.03125,-0.125 -0.0064,-0.03201 -0.02791,-0.08978 -0.03125,-0.125 -0.0034,-0.04511 0,-0.10518 0,-0.15625 l 0,-5.53125 c 0,-0.758333 0.648417,-1.689366 1.40625,-1.689366 l 5.0625,0 c 2.816697,-1e-6 5.590951,-2.703774 5.590951,-5.560634 l 0,-0.46875 z"
       id="path2746"
       style="opacity:0.6;fill:url(#linearGradient3927);fill-opacity:1;stroke:none;stroke-width:3;stroke-miterlimit:4;stroke-dasharray:none;stroke-opacity:1" />
    <path
       d="m 17.853886,13.537508 c 0,-1.676591 0.449553,-2.588726 2.931863,-3.023077 1.685278,-0.295358 3.846169,-0.332277 5.861553,0 1.591893,0.262782 2.931863,1.448558 2.931863,3.023077 l 0,5.531447 c 0,1.622297 -1.300879,2.951408 -2.931863,2.951408 l -5.315844,0.293843 c -1.989323,0 -4.043713,1.738115 -4.043713,3.65577 l -0.16791,2.318057 -2.015384,0 c -1.704824,0 -2.697314,-1.22921 -3.11429,-2.949236 -0.562483,-2.310742 -0.538594,-3.687631 0,-5.900645 0.466927,-1.930686 1.958919,-2.949236 3.663742,-2.949236 l 2.199983,0 5.863725,0 0,-0.01965 -5.863725,0 0,-2.931763 0,0 z"
       id="path2730"
       style="fill:url(#radialGradient4129);fill-opacity:1;stroke:none;stroke-opacity:1" />
    <path
       d="m 19.319818,13.170482 c 0,-0.612434 0.490815,-1.107593 1.098905,-1.107593 0.605918,0 1.098906,0.495159 1.098906,1.107593 0,0.610261 -0.492988,1.10542 -1.098906,1.10542 -0.60809,0 -1.098905,-0.495159 -1.098905,-1.10542 z"
       id="path2734"
       style="fill:#ffffff" />
    <path
       d="m 23.213119,10.269898 c -0.867367,0.02101 -1.700191,0.120781 -2.4375,0.25 -2.48231,0.434351 -2.906249,1.35466 -2.90625,3.03125 l 0,2.90625 5.84375,0 0,0.03125 -5.84375,0 -2.21875,0 c -1.704823,0 -3.189323,1.006813 -3.65625,2.9375 -0.316985,1.302451 -0.460443,2.322208 -0.40625,3.40625 3.861622,-4.3769 8.005153,-4.696769 10.0625,-4.6875 4.07346,0.01795 5.991982,-0.983717 7.9375,-3.1875 l 0,-1.40625 c 0,-1.574519 -1.345605,-2.768469 -2.9375,-3.03125 -1.133654,-0.186906 -2.322314,-0.277014 -3.4375,-0.25 z"
       id="path2738"
       style="opacity:0.4;fill:url(#linearGradient3144);fill-opacity:1;stroke:none;stroke-opacity:1" />
    <path
       d="m 17.506602,13.865527 c 0,-1.663401 1.745173,-2.505874 3.218802,-2.926033 2.216945,-0.633471 3.996135,-0.536511 5.849007,0 1.547311,0.44817 2.925588,1.363901 2.925588,2.926033 l 0,5.487927 c 0,1.579368 -1.324099,3.178072 -2.925588,3.178072 l -5.449585,0 c -1.52992,0 -3.67244,1.674173 -3.67244,3.658618 l 0,2.309856 -2.578156,0 c -1.703342,0 -2.50517,-1.258324 -2.925588,-2.926032 -0.585117,-2.316263 -0.611122,-4.048614 0,-5.854221 0.591619,-1.753896 1.224413,-3.134269 2.925588,-3.134269 l 2.632372,0 6.142222,0 0,0.01151 -6.142222,-0.02082 0,-2.71064 z"
       id="path3530"
       style="fill:none;fill-opacity:1;stroke:url(#linearGradient4137);stroke-width:1;stroke-opacity:1" />
    <path
       d="m 23.78125,11.40625 c -0.862717,-0.01097 -1.777014,0.07912 -2.8125,0.375 -0.672845,0.191841 -1.396985,0.509889 -1.875,0.875 -0.478015,0.365111 -0.6875,0.699079 -0.6875,1.21875 l 0,1.78125 5.25,0.03125 c 0.500508,0 0.90625,0.405742 0.90625,0.90625 0,0.500508 -0.405742,0.90625 -0.90625,0.90625 l -6.15625,0 -2.625,0 c -0.610876,0 -0.866148,0.159164 -1.1875,0.5625 -0.321352,0.403336 -0.619307,1.086838 -0.90625,1.9375 -0.553433,1.63516 -0.529687,3.123204 0.03125,5.34375 0.189975,0.753591 0.457537,1.355682 0.78125,1.71875 0.323713,0.363068 0.651296,0.53125 1.28125,0.53125 l 1.65625,0 0,-1.40625 c 0,-1.315589 0.693062,-2.426218 1.5625,-3.21875 0.869438,-0.792532 1.941289,-1.343751 3.03125,-1.34375 l 5.4375,0 c 1.004185,0 2.031251,-1.205065 2.03125,-2.28125 l 0,-5.46875 c 0,-0.516384 -0.163885,-0.86278 -0.5625,-1.21875 -0.398615,-0.35597 -1.034443,-0.676794 -1.71875,-0.875 -0.867342,-0.251145 -1.668575,-0.364035 -2.53125,-0.375 z"
       id="path4143"
       style="opacity:0.4;fill:none;fill-opacity:1;stroke:url(#linearGradient4153);stroke-width:1;stroke-opacity:1" />
  </g>
</svg>
